# xmcd
#
# Track frame offsets:
#	150
#	18707
#	41060
#	51567
#	74897
#	86175
#	101312
#	116425
#	142107
#	151900
#
# Disc length: 2601 seconds
#
# Revision: 0
# Processed by: cddbd v1.5.2PL0 Copyright (c) Steve Scherf et al.
# Submitted via: EasyCDDAExtractor 12.0.6 .1
#
DISCID=940a270a
DTITLE=Metropolis
DYEAR=1900
DGENRE=
TTITLE0=Spectrum
TTITLE1=Maria's Third Poem
TTITLE2=Your All Righteous Self
TTITLE3=World Of Black And White
TTITLE4=Emotional Blackmail
TTITLE5=Love And Isolation
TTITLE6=Culture Manufacture
TTITLE7=Wait For Nothing
TTITLE8=Sleep Extension
TTITLE9=Welcome To Metropolis
EXTD=
EXTT0=
EXTT1=
EXTT2=
EXTT3=
EXTT4=
EXTT5=
EXTT6=
EXTT7=
EXTT8=
EXTT9=
PLAYORDER=
